<svg viewBox="0 0 29 29" fill="none" xmlns="http://www.w3.org/2000/svg">
<g clip-path="url(#clip0_59_695)">
<rect x="7.5" y="2.25" width="21" height="24.5" rx="1.75" fill="#2FB776"/>
<path d="M7.5 20.625H28.5V25C28.5 25.9665 27.7165 26.75 26.75 26.75H9.25C8.2835 26.75 7.5 25.9665 7.5 25V20.625Z" fill="url(#paint0_linear_59_695)"/>
<rect x="18" y="14.5" width="10.5" height="6.125" fill="#229C5B"/>
<rect x="18" y="8.375" width="10.5" height="6.125" fill="#27AE68"/>
<path d="M7.5 4C7.5 3.0335 8.2835 2.25 9.25 2.25H18V8.375H7.5V4Z" fill="#1D854F"/>
<rect x="7.5" y="8.375" width="10.5" height="6.125" fill="#197B43"/>
<rect x="7.5" y="14.5" width="10.5" height="6.125" fill="#1B5B38"/>
<path d="M7.5 11C7.5 9.55025 8.67525 8.375 10.125 8.375H15.375C16.8247 8.375 18 9.55025 18 11V21.5C18 22.9497 16.8247 24.125 15.375 24.125H7.5V11Z" fill="black" fill-opacity="0.3"/>
<rect x="0.5" y="6.625" width="15.75" height="15.75" rx="1.75" fill="url(#paint1_linear_59_695)"/>
<path d="M11.875 18.875L9.40936 14.4125L11.7668 10.125H9.84235L8.38703 12.8625L6.95576 10.125H4.97122L7.34064 14.4125L4.875 18.875H6.7994L8.35095 15.975L9.89046 18.875H11.875Z" fill="white"/>
</g>
<defs>
<linearGradient id="paint0_linear_59_695" x1="7.5" y1="23.6875" x2="28.5" y2="23.6875" gradientUnits="userSpaceOnUse">
<stop stop-color="#163C27"/>
<stop offset="1" stop-color="#2A6043"/>
</linearGradient>
<linearGradient id="paint1_linear_59_695" x1="0.5" y1="14.5" x2="16.25" y2="14.5" gradientUnits="userSpaceOnUse">
<stop stop-color="#185A30"/>
<stop offset="1" stop-color="#176F3D"/>
</linearGradient>
<clipPath id="clip0_59_695">
<rect width="28" height="28" fill="white" transform="translate(0.5 0.5)"/>
</clipPath>
</defs>
</svg>
