<svg viewBox="0 0 142 33" fill="none" xmlns="http://www.w3.org/2000/svg">
<path d="M18.9751 6.8423V6.2368C18.9751 5.83232 18.9751 5.2207 17.959 5.2207H1.01611C-5.8446e-07 5.2207 0 5.83232 0 6.2368V6.8423C0 7.24678 -5.8446e-07 7.85841 1.01611 7.85841H8.1693V27.5554C8.1693 28.4894 8.43282 28.5728 9.18663 28.5728H9.78845C10.4797 28.5728 10.8046 28.4722 10.8046 27.5554V7.85841H17.959C18.9751 7.85841 18.9751 7.24678 18.9751 6.8423Z" fill="#3B6FE0"/>
<path d="M48.7552 16.2967L55.6853 6.84169C56.0383 6.36121 56.1351 5.97879 55.9795 5.67237C55.7503 5.22009 55.0872 5.22009 54.8678 5.22009H54.0943C53.7953 5.22009 53.5759 5.24828 53.267 5.6454L47.1802 14.0035L41.4512 5.65031C41.1644 5.25931 40.9867 5.22009 40.6227 5.22009H39.8762C39.6703 5.22009 39.0415 5.22009 38.8074 5.65644C38.6468 5.95428 38.7216 6.33302 39.0366 6.80859L45.5659 16.3029L38.132 26.9652C37.7852 27.4384 37.6908 27.8171 37.8452 28.1199C38.0744 28.5721 38.74 28.5721 38.9594 28.5721H39.7046C40.0196 28.5721 40.2635 28.5415 40.543 28.1309L47.1458 18.6133L53.544 28.1346C53.8357 28.5415 54.0649 28.5721 54.3812 28.5721H55.1546C55.3899 28.5721 56.1045 28.5721 56.3263 28.1015C56.5421 27.6443 56.118 27.1295 55.9991 26.9885L48.7552 16.2967Z" fill="#3B6FE0"/>
<path d="M27.1344 5.86824L27.132 5.86211C26.8844 5.26764 26.5706 5.21984 26.1869 5.21984H25.6427C25.329 5.21984 24.9392 5.21984 24.6965 5.86579L15.7305 27.1685C15.5381 27.584 15.5233 27.926 15.6864 28.1809C15.9364 28.5719 16.488 28.5719 16.6694 28.5719H17.3006C17.6879 28.5719 18.0042 28.5253 18.2444 27.9309C18.9296 26.2443 23.7699 15.4128 25.9001 9.89834C27.8711 15.0965 32.3976 25.189 33.4676 27.926C33.7017 28.5241 34.0216 28.5719 34.4151 28.5719H35.0733C35.2633 28.5719 35.7646 28.5719 36.0171 28.1993C36.1874 27.948 36.1887 27.6073 36.0207 27.1869L27.1344 5.86824Z" fill="#3B6FE0"/>
<path d="M25.8601 20.2997C24.6687 20.2997 23.6992 21.3354 23.6992 22.6064C23.6992 23.8787 24.6687 24.9132 25.8601 24.9132C27.0515 24.9132 28.0223 23.8787 28.0223 22.6064C28.0223 21.3354 27.0515 20.2997 25.8601 20.2997Z" fill="#3B6FE0"/>
<path d="M93.9128 6.55382L92.9936 5.74976C86.2032 0.0269604 75.8693 -1.60935 67.2759 1.68043C64.2386 2.83014 61.3815 4.60495 59.0196 6.80754C58.8259 6.98281 58.7144 7.23899 58.7168 7.51232C58.7181 7.7881 58.8345 8.04672 59.0257 8.21464C59.4167 8.57623 60.021 8.56029 60.3887 8.1889C62.1782 6.53543 64.1835 5.17981 66.3493 4.16125C73.5527 0.686388 82.7651 1.51619 89.2846 6.22778C90.1843 6.83941 91.0839 7.56135 92.0167 8.42056C92.2618 8.67673 92.6124 8.82627 93.0021 8.8324C93.3601 8.8324 93.691 8.70002 93.9214 8.47082C94.1886 8.22568 94.3382 7.87145 94.3345 7.49883C94.3308 7.1348 94.1776 6.78915 93.9128 6.55382Z" fill="#3B6FE0"/>
<path d="M84.9619 5.98259H84.3601C83.9544 5.98259 83.3427 5.9826 83.3427 6.9987V23.2601L76.0927 5.8686L76.0903 5.86248C75.8439 5.26801 75.5301 5.22021 75.1465 5.22021H74.601C74.2885 5.22021 73.8987 5.22021 73.6548 5.86493L64.6888 27.1688C64.4964 27.5843 64.4829 27.9251 64.6459 28.1813C64.8959 28.5723 65.4475 28.5723 65.6289 28.5723H66.2589C66.6475 28.5723 66.9625 28.5257 67.2039 27.9312C67.8891 26.2447 72.7282 15.4131 74.8584 9.89748C76.8294 15.0969 81.3571 25.1881 82.4259 27.9251C82.6612 28.5245 82.9799 28.5723 83.3734 28.5723H84.0328H84.3601H84.9619C85.3664 28.5723 85.978 28.5723 85.978 27.5562V6.9987C85.978 5.9826 85.3664 5.98259 84.9619 5.98259Z" fill="#3B6FE0"/>
<path d="M74.8172 20.2994C73.6258 20.2994 72.6562 21.3351 72.6562 22.6062C72.6562 23.8785 73.6258 24.913 74.8172 24.913C76.0085 24.913 76.9793 23.8785 76.9793 22.6062C76.9793 21.3351 76.0085 20.2994 74.8172 20.2994Z" fill="#3B6FE0"/>
<path d="M114.017 10.1992V11.4121C113.994 12.8047 113.994 14.8037 113.522 17.3867L111.052 17.1621C111.445 15.062 111.523 13.5122 111.568 12.2656H103.662V10.1992H114.017ZM108.896 14.8262V18.8691C110.996 18.7905 113.152 18.6333 115.117 18.3525L115.252 20.1494C111.029 20.9131 106.245 20.9805 102.674 21.0029L102.449 19.0039C103.651 18.9927 104.999 18.9814 106.425 18.959V14.8262H108.896ZM118.868 8.69434V15.0283H121.496V17.1172H118.868V23.9004H116.308V8.69434H118.868ZM119.52 26.5732V28.5947H105.481V22.5527H107.997V26.5732H119.52ZM128.586 14.0176C128.586 17.2969 129.731 20.7109 132.471 22.4404L131.101 24.3496C129.271 23.249 128.08 21.3511 127.418 19.1162C126.677 21.5757 125.374 23.6533 123.465 24.8213L121.915 22.957C124.857 21.1602 126.182 17.5889 126.182 14.1299V10.4912H128.586V14.0176ZM139.771 8.69434V28.999H137.368V8.69434H139.771ZM135.549 9.05371V28.0107H133.19V17.7461H130.293V15.6797H133.19V9.05371H135.549Z" fill="#3B6FE0"/>
</svg>
